<?xml version="1.0" encoding="UTF-8"?>
<svg xmlns="http://www.w3.org/2000/svg" xmlns:xlink="http://www.w3.org/1999/xlink" width="500pt" height="500pt" viewBox="0 0 500 500" version="1.1">
<g id="surface1">
<path style=" stroke:none;fill-rule:nonzero;fill:rgb(0%,0%,0%);fill-opacity:1;" d="M 432.628906 157.46875 L 500 157.46875 L 500 191.964844 L 432.628906 191.964844 Z M 432.628906 157.46875 "/>
<path style=" stroke:none;fill-rule:nonzero;fill:rgb(0%,0%,0%);fill-opacity:1;" d="M 0 157.46875 L 67.394531 157.46875 L 67.394531 191.964844 L 0 191.964844 Z M 0 157.46875 "/>
<path style=" stroke:none;fill-rule:nonzero;fill:rgb(0%,0%,0%);fill-opacity:1;" d="M 431.613281 127.574219 C 431.613281 82.179688 401.214844 51.515625 363.878906 51.515625 L 136.136719 51.515625 C 98.785156 51.515625 68.402344 82.167969 68.402344 127.574219 L 68.402344 202.925781 L 33.691406 202.925781 L 33.691406 296.972656 L 94.824219 296.972656 L 94.824219 298.871094 L 417.707031 298.871094 L 417.707031 296.972656 L 466.296875 296.972656 L 466.296875 202.925781 L 431.585938 202.925781 L 431.585938 127.574219 Z M 94.046875 274.257812 L 57.226562 274.257812 L 57.226562 237.433594 L 94.046875 237.433594 Z M 122.003906 275.035156 C 111.03125 275.035156 102.15625 266.136719 102.15625 255.1875 C 102.15625 244.210938 111.03125 235.296875 122.003906 235.296875 C 132.953125 235.296875 141.867188 244.210938 141.867188 255.1875 C 141.867188 266.136719 132.953125 275.035156 122.003906 275.035156 Z M 207.90625 283.898438 L 189.085938 283.898438 L 189.085938 225.378906 L 207.90625 225.378906 Z M 243.429688 283.898438 L 224.613281 283.898438 L 224.613281 225.378906 L 243.429688 225.378906 Z M 281.058594 283.898438 L 262.25 283.898438 L 262.25 225.378906 L 281.058594 225.378906 Z M 316.597656 283.898438 L 297.765625 283.898438 L 297.765625 225.378906 L 316.597656 225.378906 Z M 307.167969 202.925781 C 309.355469 189.058594 321.285156 178.414062 335.730469 178.414062 C 350.175781 178.414062 362.117188 189.074219 364.28125 202.925781 Z M 372.789062 275.035156 C 361.839844 275.035156 352.929688 266.136719 352.929688 255.1875 C 352.929688 244.210938 361.855469 235.296875 372.789062 235.296875 C 383.789062 235.296875 392.652344 244.210938 392.652344 255.1875 C 392.652344 266.136719 383.789062 275.035156 372.789062 275.035156 Z M 400.257812 202.925781 L 376.824219 202.925781 C 374.574219 182.234375 357.011719 166.078125 335.730469 166.078125 C 314.472656 166.078125 296.898438 182.246094 294.632812 202.925781 L 199.042969 202.925781 L 199.042969 157.46875 L 135.066406 157.46875 L 135.066406 202.925781 L 99.742188 202.925781 L 99.742188 127.574219 C 99.742188 99.941406 116.410156 82.84375 136.136719 82.84375 L 363.878906 82.84375 C 383.589844 82.84375 400.257812 99.929688 400.257812 127.574219 Z M 437.835938 237.433594 L 437.835938 274.269531 L 401.027344 274.269531 L 401.027344 237.433594 Z M 437.835938 237.433594 "/>
<path style=" stroke:none;fill-rule:nonzero;fill:rgb(0%,0%,0%);fill-opacity:1;" d="M 417.734375 300.769531 L 376.488281 316.949219 L 127.773438 316.949219 L 95.644531 305.21875 L 95.644531 304.300781 L 26.800781 304.300781 L 26.800781 448.496094 L 95.644531 448.496094 L 95.644531 404.546875 L 126.164062 404.207031 L 126.164062 387.914062 L 270.496094 387.914062 C 276.910156 406.542969 298.417969 420.296875 324.050781 420.296875 C 349.710938 420.296875 371.195312 406.542969 377.617188 387.914062 L 386.367188 387.914062 L 386.367188 403.578125 L 413.03125 403.578125 L 413.03125 448.496094 L 478.828125 448.496094 L 478.828125 304.300781 L 417.71875 304.300781 L 417.71875 300.769531 Z M 417.734375 300.769531 "/>
</g>
</svg>
