<svg width="416.979" height="416.979" xmlns="http://www.w3.org/2000/svg">

 <g>
  <title>background</title>
  <rect fill="none" id="canvas_background" height="602" width="802" y="-1" x="-1"/>
 </g>
 <g>
  <title>Layer 1</title>
  <g id="svg_1">
   <path id="svg_2" d="m356.004,61.156c-81.37,-81.47 -213.377,-81.551 -294.848,-0.182c-81.47,81.371 -81.552,213.379 -0.181,294.85c81.369,81.47 213.378,81.551 294.849,0.181c81.469,-81.369 81.551,-213.379 0.18,-294.849zm-147.45,273.638c-11.028,0 -19.968,-8.939 -19.968,-19.968s8.939,-19.969 19.968,-19.969c11.028,0 19.968,8.939 19.968,19.969c-0.001,11.028 -8.94,19.968 -19.968,19.968zm32.464,-120.228c-11.406,6.668 -12.381,14.871 -12.43,38.508c-0.003,1.563 -0.008,3.14 -0.017,4.726c-0.071,11.172 -9.147,20.18 -20.304,20.18c-0.044,0 -0.088,0 -0.131,0c-11.215,-0.071 -20.248,-9.22 -20.178,-20.436c0.01,-1.528 0.013,-3.047 0.016,-4.552c0.05,-24.293 0.111,-54.524 32.547,-73.484c26.026,-15.214 29.306,-25.208 26.254,-38.322c-3.586,-15.404 -17.653,-19.396 -28.63,-18.141c-3.686,0.423 -22.069,3.456 -22.069,21.642c0,11.213 -9.092,20.306 -20.307,20.306c-11.215,0 -20.306,-9.093 -20.306,-20.306c0,-32.574 23.87,-58.065 58.048,-61.989c35.2,-4.038 65.125,16.226 72.816,49.282c11.497,49.381 -29.772,73.505 -45.309,82.586z"/>
  </g>
  <g id="svg_3"/>
  <g id="svg_4"/>
  <g id="svg_5"/>
  <g id="svg_6"/>
  <g id="svg_7"/>
  <g id="svg_8"/>
  <g id="svg_9"/>
  <g id="svg_10"/>
  <g id="svg_11"/>
  <g id="svg_12"/>
  <g id="svg_13"/>
  <g id="svg_14"/>
  <g id="svg_15"/>
  <g id="svg_16"/>
  <g id="svg_17"/>
 </g>
</svg>
